ISO-10303-21;
HEADER;
/* Generated by software containing ST-Developer
 * from STEP Tools, Inc. (www.steptools.com) 
 */
/* OPTION: using custom renumber hook */

FILE_DESCRIPTION(
/* description */ ('STEP AP242 Edition 2',
'CAx-IF Rec.Pracs.---Representation and Presentation of Product Manufa
cturing Information (PMI)---4.0---2014-10-13',
'CAx-IF Rec.Pracs.---3D Tessellated Geometry---0.4---2014-09-14','2;1',
'CAx-IF Rec.Pracs.---User Defined Attributes---1.5---2016-08-15'),
/* implementation_level */ '2;1');

FILE_NAME(
/* name */ 'TunnelRight',
/* time_stamp */ '2026-09-27T03:07:14Z',
/* author */ (''),
/* organization */ (''),
/* preprocessor_version */ 'ST-DEVELOPER v20',
/* originating_system */ 'ONSHAPE BY PTC INC, 1.221',
/* authorisation */ '  ');

FILE_SCHEMA (('AP242_MANAGED_MODEL_BASED_3D_ENGINEERING_MIM_LF { 1 0 10303 442 3 1 4 }'));
ENDSEC;

DATA;
#10=SHAPE_REPRESENTATION_RELATIONSHIP('','',#367,#11);
#11=ADVANCED_BREP_SHAPE_REPRESENTATION('',(#365),#573);
#12=ORIENTED_EDGE('',*,*,#108,.F.);
#13=ORIENTED_EDGE('',*,*,#109,.T.);
#14=ORIENTED_EDGE('',*,*,#110,.T.);
#15=ORIENTED_EDGE('',*,*,#111,.F.);
#16=ORIENTED_EDGE('',*,*,#112,.F.);
#17=ORIENTED_EDGE('',*,*,#111,.T.);
#18=ORIENTED_EDGE('',*,*,#113,.T.);
#19=ORIENTED_EDGE('',*,*,#114,.F.);
#20=ORIENTED_EDGE('',*,*,#115,.F.);
#21=ORIENTED_EDGE('',*,*,#114,.T.);
#22=ORIENTED_EDGE('',*,*,#116,.T.);
#23=ORIENTED_EDGE('',*,*,#117,.F.);
#24=ORIENTED_EDGE('',*,*,#118,.F.);
#25=ORIENTED_EDGE('',*,*,#119,.T.);
#26=ORIENTED_EDGE('',*,*,#117,.T.);
#27=ORIENTED_EDGE('',*,*,#120,.F.);
#28=ORIENTED_EDGE('',*,*,#121,.F.);
#29=ORIENTED_EDGE('',*,*,#118,.T.);
#30=ORIENTED_EDGE('',*,*,#122,.T.);
#31=ORIENTED_EDGE('',*,*,#123,.F.);
#32=ORIENTED_EDGE('',*,*,#124,.F.);
#33=ORIENTED_EDGE('',*,*,#125,.T.);
#34=ORIENTED_EDGE('',*,*,#123,.T.);
#35=ORIENTED_EDGE('',*,*,#126,.F.);
#36=ORIENTED_EDGE('',*,*,#127,.F.);
#37=ORIENTED_EDGE('',*,*,#128,.T.);
#38=ORIENTED_EDGE('',*,*,#124,.T.);
#39=ORIENTED_EDGE('',*,*,#129,.F.);
#40=ORIENTED_EDGE('',*,*,#130,.F.);
#41=ORIENTED_EDGE('',*,*,#127,.T.);
#42=ORIENTED_EDGE('',*,*,#131,.T.);
#43=ORIENTED_EDGE('',*,*,#132,.F.);
#44=ORIENTED_EDGE('',*,*,#133,.T.);
#45=ORIENTED_EDGE('',*,*,#134,.F.);
#46=ORIENTED_EDGE('',*,*,#135,.F.);
#47=ORIENTED_EDGE('',*,*,#136,.T.);
#48=ORIENTED_EDGE('',*,*,#135,.T.);
#49=ORIENTED_EDGE('',*,*,#137,.T.);
#50=ORIENTED_EDGE('',*,*,#138,.F.);
#51=ORIENTED_EDGE('',*,*,#139,.F.);
#52=ORIENTED_EDGE('',*,*,#138,.T.);
#53=ORIENTED_EDGE('',*,*,#140,.T.);
#54=ORIENTED_EDGE('',*,*,#109,.F.);
#55=ORIENTED_EDGE('',*,*,#141,.T.);
#56=ORIENTED_EDGE('',*,*,#142,.T.);
#57=ORIENTED_EDGE('',*,*,#143,.T.);
#58=ORIENTED_EDGE('',*,*,#144,.F.);
#59=ORIENTED_EDGE('',*,*,#145,.F.);
#60=ORIENTED_EDGE('',*,*,#146,.T.);
#61=ORIENTED_EDGE('',*,*,#144,.T.);
#62=ORIENTED_EDGE('',*,*,#147,.F.);
#63=ORIENTED_EDGE('',*,*,#148,.F.);
#64=ORIENTED_EDGE('',*,*,#149,.F.);
#65=ORIENTED_EDGE('',*,*,#132,.T.);
#66=ORIENTED_EDGE('',*,*,#150,.F.);
#67=ORIENTED_EDGE('',*,*,#133,.F.);
#68=ORIENTED_EDGE('',*,*,#145,.T.);
#69=ORIENTED_EDGE('',*,*,#146,.F.);
#70=ORIENTED_EDGE('',*,*,#136,.F.);
#71=ORIENTED_EDGE('',*,*,#139,.T.);
#72=ORIENTED_EDGE('',*,*,#134,.T.);
#73=ORIENTED_EDGE('',*,*,#150,.T.);
#74=ORIENTED_EDGE('',*,*,#131,.F.);
#75=ORIENTED_EDGE('',*,*,#129,.T.);
#76=ORIENTED_EDGE('',*,*,#126,.T.);
#77=ORIENTED_EDGE('',*,*,#122,.F.);
#78=ORIENTED_EDGE('',*,*,#120,.T.);
#79=ORIENTED_EDGE('',*,*,#116,.F.);
#80=ORIENTED_EDGE('',*,*,#113,.F.);
#81=ORIENTED_EDGE('',*,*,#110,.F.);
#82=ORIENTED_EDGE('',*,*,#140,.F.);
#83=ORIENTED_EDGE('',*,*,#137,.F.);
#84=ORIENTED_EDGE('',*,*,#141,.F.);
#85=ORIENTED_EDGE('',*,*,#108,.T.);
#86=ORIENTED_EDGE('',*,*,#112,.T.);
#87=ORIENTED_EDGE('',*,*,#115,.T.);
#88=ORIENTED_EDGE('',*,*,#119,.F.);
#89=ORIENTED_EDGE('',*,*,#121,.T.);
#90=ORIENTED_EDGE('',*,*,#125,.F.);
#91=ORIENTED_EDGE('',*,*,#128,.F.);
#92=ORIENTED_EDGE('',*,*,#130,.T.);
#93=ORIENTED_EDGE('',*,*,#149,.T.);
#94=ORIENTED_EDGE('',*,*,#151,.F.);
#95=ORIENTED_EDGE('',*,*,#152,.F.);
#96=ORIENTED_EDGE('',*,*,#142,.F.);
#97=ORIENTED_EDGE('',*,*,#152,.T.);
#98=ORIENTED_EDGE('',*,*,#153,.T.);
#99=ORIENTED_EDGE('',*,*,#154,.F.);
#100=ORIENTED_EDGE('',*,*,#153,.F.);
#101=ORIENTED_EDGE('',*,*,#151,.T.);
#102=ORIENTED_EDGE('',*,*,#148,.T.);
#103=ORIENTED_EDGE('',*,*,#155,.F.);
#104=ORIENTED_EDGE('',*,*,#154,.T.);
#105=ORIENTED_EDGE('',*,*,#155,.T.);
#106=ORIENTED_EDGE('',*,*,#147,.T.);
#107=ORIENTED_EDGE('',*,*,#143,.F.);
#108=EDGE_CURVE('',#156,#157,#188,.T.);
#109=EDGE_CURVE('',#156,#158,#189,.T.);
#110=EDGE_CURVE('',#158,#159,#190,.T.);
#111=EDGE_CURVE('',#157,#159,#191,.T.);
#112=EDGE_CURVE('',#157,#160,#192,.T.);
#113=EDGE_CURVE('',#159,#161,#193,.T.);
#114=EDGE_CURVE('',#160,#161,#194,.T.);
#115=EDGE_CURVE('',#160,#162,#195,.T.);
#116=EDGE_CURVE('',#161,#163,#196,.T.);
#117=EDGE_CURVE('',#162,#163,#197,.T.);
#118=EDGE_CURVE('',#164,#165,#198,.T.);
#119=EDGE_CURVE('',#164,#162,#199,.T.);
#120=EDGE_CURVE('',#165,#163,#200,.T.);
#121=EDGE_CURVE('',#164,#166,#201,.T.);
#122=EDGE_CURVE('',#165,#167,#202,.T.);
#123=EDGE_CURVE('',#166,#167,#203,.T.);
#124=EDGE_CURVE('',#168,#169,#204,.T.);
#125=EDGE_CURVE('',#168,#166,#205,.T.);
#126=EDGE_CURVE('',#169,#167,#206,.T.);
#127=EDGE_CURVE('',#170,#171,#207,.T.);
#128=EDGE_CURVE('',#170,#168,#208,.T.);
#129=EDGE_CURVE('',#171,#169,#209,.T.);
#130=EDGE_CURVE('',#170,#172,#210,.T.);
#131=EDGE_CURVE('',#171,#173,#211,.T.);
#132=EDGE_CURVE('',#172,#173,#212,.T.);
#133=EDGE_CURVE('',#174,#175,#213,.T.);
#134=EDGE_CURVE('',#176,#175,#214,.T.);
#135=EDGE_CURVE('',#177,#176,#215,.T.);
#136=EDGE_CURVE('',#177,#174,#216,.T.);
#137=EDGE_CURVE('',#176,#178,#217,.T.);
#138=EDGE_CURVE('',#179,#178,#218,.T.);
#139=EDGE_CURVE('',#177,#179,#219,.T.);
#140=EDGE_CURVE('',#178,#158,#220,.T.);
#141=EDGE_CURVE('',#156,#180,#221,.T.);
#142=EDGE_CURVE('',#180,#181,#222,.T.);
#143=EDGE_CURVE('',#181,#182,#223,.T.);
#144=EDGE_CURVE('',#183,#182,#224,.T.);
#145=EDGE_CURVE('',#179,#183,#225,.T.);
#146=EDGE_CURVE('',#174,#183,#226,.T.);
#147=EDGE_CURVE('',#184,#182,#227,.T.);
#148=EDGE_CURVE('',#185,#184,#228,.T.);
#149=EDGE_CURVE('',#172,#185,#229,.T.);
#150=EDGE_CURVE('',#175,#173,#230,.T.);
#151=EDGE_CURVE('',#186,#185,#231,.T.);
#152=EDGE_CURVE('',#180,#186,#232,.T.);
#153=EDGE_CURVE('',#186,#187,#233,.T.);
#154=EDGE_CURVE('',#181,#187,#234,.T.);
#155=EDGE_CURVE('',#187,#184,#235,.T.);
#156=VERTEX_POINT('',#476);
#157=VERTEX_POINT('',#477);
#158=VERTEX_POINT('',#479);
#159=VERTEX_POINT('',#481);
#160=VERTEX_POINT('',#485);
#161=VERTEX_POINT('',#487);
#162=VERTEX_POINT('',#491);
#163=VERTEX_POINT('',#493);
#164=VERTEX_POINT('',#497);
#165=VERTEX_POINT('',#498);
#166=VERTEX_POINT('',#503);
#167=VERTEX_POINT('',#505);
#168=VERTEX_POINT('',#509);
#169=VERTEX_POINT('',#510);
#170=VERTEX_POINT('',#515);
#171=VERTEX_POINT('',#516);
#172=VERTEX_POINT('',#521);
#173=VERTEX_POINT('',#523);
#174=VERTEX_POINT('',#527);
#175=VERTEX_POINT('',#528);
#176=VERTEX_POINT('',#530);
#177=VERTEX_POINT('',#532);
#178=VERTEX_POINT('',#536);
#179=VERTEX_POINT('',#538);
#180=VERTEX_POINT('',#543);
#181=VERTEX_POINT('',#545);
#182=VERTEX_POINT('',#547);
#183=VERTEX_POINT('',#549);
#184=VERTEX_POINT('',#554);
#185=VERTEX_POINT('',#556);
#186=VERTEX_POINT('',#563);
#187=VERTEX_POINT('',#567);
#188=LINE('',#475,#236);
#189=LINE('',#478,#237);
#190=LINE('',#480,#238);
#191=LINE('',#482,#239);
#192=LINE('',#484,#240);
#193=LINE('',#486,#241);
#194=LINE('',#488,#242);
#195=LINE('',#490,#243);
#196=LINE('',#492,#244);
#197=LINE('',#494,#245);
#198=LINE('',#496,#246);
#199=LINE('',#499,#247);
#200=LINE('',#500,#248);
#201=LINE('',#502,#249);
#202=LINE('',#504,#250);
#203=LINE('',#506,#251);
#204=LINE('',#508,#252);
#205=LINE('',#511,#253);
#206=LINE('',#512,#254);
#207=LINE('',#514,#255);
#208=LINE('',#517,#256);
#209=LINE('',#518,#257);
#210=LINE('',#520,#258);
#211=LINE('',#522,#259);
#212=LINE('',#524,#260);
#213=LINE('',#526,#261);
#214=LINE('',#529,#262);
#215=LINE('',#531,#263);
#216=LINE('',#533,#264);
#217=LINE('',#535,#265);
#218=LINE('',#537,#266);
#219=LINE('',#539,#267);
#220=LINE('',#541,#268);
#221=LINE('',#542,#269);
#222=LINE('',#544,#270);
#223=LINE('',#546,#271);
#224=LINE('',#548,#272);
#225=LINE('',#550,#273);
#226=LINE('',#552,#274);
#227=LINE('',#553,#275);
#228=LINE('',#555,#276);
#229=LINE('',#557,#277);
#230=LINE('',#558,#278);
#231=LINE('',#562,#279);
#232=LINE('',#564,#280);
#233=LINE('',#566,#281);
#234=LINE('',#568,#282);
#235=LINE('',#570,#283);
#236=VECTOR('',#391,1.);
#237=VECTOR('',#392,1.);
#238=VECTOR('',#393,1.);
#239=VECTOR('',#394,1.);
#240=VECTOR('',#397,1.);
#241=VECTOR('',#398,1.);
#242=VECTOR('',#399,1.);
#243=VECTOR('',#402,1.);
#244=VECTOR('',#403,1.);
#245=VECTOR('',#404,1.);
#246=VECTOR('',#407,1.);
#247=VECTOR('',#408,1.);
#248=VECTOR('',#409,1.);
#249=VECTOR('',#412,1.);
#250=VECTOR('',#413,1.);
#251=VECTOR('',#414,1.);
#252=VECTOR('',#417,1.);
#253=VECTOR('',#418,1.);
#254=VECTOR('',#419,1.);
#255=VECTOR('',#422,1.);
#256=VECTOR('',#423,1.);
#257=VECTOR('',#424,1.);
#258=VECTOR('',#427,1.);
#259=VECTOR('',#428,1.);
#260=VECTOR('',#429,1.);
#261=VECTOR('',#432,1.);
#262=VECTOR('',#433,1.);
#263=VECTOR('',#434,1.);
#264=VECTOR('',#435,1.);
#265=VECTOR('',#438,1.);
#266=VECTOR('',#439,1.);
#267=VECTOR('',#440,1.);
#268=VECTOR('',#443,1.);
#269=VECTOR('',#444,1.);
#270=VECTOR('',#445,1.);
#271=VECTOR('',#446,1.);
#272=VECTOR('',#447,1.);
#273=VECTOR('',#448,1.);
#274=VECTOR('',#451,1.);
#275=VECTOR('',#452,1.);
#276=VECTOR('',#453,1.);
#277=VECTOR('',#454,1.);
#278=VECTOR('',#455,1.);
#279=VECTOR('',#462,1.);
#280=VECTOR('',#463,1.);
#281=VECTOR('',#466,1.);
#282=VECTOR('',#467,1.);
#283=VECTOR('',#470,1.);
#284=EDGE_LOOP('',(#12,#13,#14,#15));
#285=EDGE_LOOP('',(#16,#17,#18,#19));
#286=EDGE_LOOP('',(#20,#21,#22,#23));
#287=EDGE_LOOP('',(#24,#25,#26,#27));
#288=EDGE_LOOP('',(#28,#29,#30,#31));
#289=EDGE_LOOP('',(#32,#33,#34,#35));
#290=EDGE_LOOP('',(#36,#37,#38,#39));
#291=EDGE_LOOP('',(#40,#41,#42,#43));
#292=EDGE_LOOP('',(#44,#45,#46,#47));
#293=EDGE_LOOP('',(#48,#49,#50,#51));
#294=EDGE_LOOP('',(#52,#53,#54,#55,#56,#57,#58,#59));
#295=EDGE_LOOP('',(#60,#61,#62,#63,#64,#65,#66,#67));
#296=EDGE_LOOP('',(#68,#69,#70,#71));
#297=EDGE_LOOP('',(#72,#73,#74,#75,#76,#77,#78,#79,#80,#81,#82,#83));
#298=EDGE_LOOP('',(#84,#85,#86,#87,#88,#89,#90,#91,#92,#93,#94,#95));
#299=EDGE_LOOP('',(#96,#97,#98,#99));
#300=EDGE_LOOP('',(#100,#101,#102,#103));
#301=EDGE_LOOP('',(#104,#105,#106,#107));
#302=FACE_BOUND('',#284,.T.);
#303=FACE_BOUND('',#285,.T.);
#304=FACE_BOUND('',#286,.T.);
#305=FACE_BOUND('',#287,.T.);
#306=FACE_BOUND('',#288,.T.);
#307=FACE_BOUND('',#289,.T.);
#308=FACE_BOUND('',#290,.T.);
#309=FACE_BOUND('',#291,.T.);
#310=FACE_BOUND('',#292,.T.);
#311=FACE_BOUND('',#293,.T.);
#312=FACE_BOUND('',#294,.T.);
#313=FACE_BOUND('',#295,.T.);
#314=FACE_BOUND('',#296,.T.);
#315=FACE_BOUND('',#297,.T.);
#316=FACE_BOUND('',#298,.T.);
#317=FACE_BOUND('',#299,.T.);
#318=FACE_BOUND('',#300,.T.);
#319=FACE_BOUND('',#301,.T.);
#320=PLANE('',#369);
#321=PLANE('',#370);
#322=PLANE('',#371);
#323=PLANE('',#372);
#324=PLANE('',#373);
#325=PLANE('',#374);
#326=PLANE('',#375);
#327=PLANE('',#376);
#328=PLANE('',#377);
#329=PLANE('',#378);
#330=PLANE('',#379);
#331=PLANE('',#380);
#332=PLANE('',#381);
#333=PLANE('',#382);
#334=PLANE('',#383);
#335=PLANE('',#384);
#336=PLANE('',#385);
#337=PLANE('',#386);
#338=ADVANCED_FACE('',(#302),#320,.F.);
#339=ADVANCED_FACE('',(#303),#321,.F.);
#340=ADVANCED_FACE('',(#304),#322,.F.);
#341=ADVANCED_FACE('',(#305),#323,.T.);
#342=ADVANCED_FACE('',(#306),#324,.F.);
#343=ADVANCED_FACE('',(#307),#325,.T.);
#344=ADVANCED_FACE('',(#308),#326,.T.);
#345=ADVANCED_FACE('',(#309),#327,.F.);
#346=ADVANCED_FACE('',(#310),#328,.T.);
#347=ADVANCED_FACE('',(#311),#329,.F.);
#348=ADVANCED_FACE('',(#312),#330,.F.);
#349=ADVANCED_FACE('',(#313),#331,.T.);
#350=ADVANCED_FACE('',(#314),#332,.T.);
#351=ADVANCED_FACE('',(#315),#333,.F.);
#352=ADVANCED_FACE('',(#316),#334,.F.);
#353=ADVANCED_FACE('',(#317),#335,.T.);
#354=ADVANCED_FACE('',(#318),#336,.T.);
#355=ADVANCED_FACE('',(#319),#337,.F.);
#356=CLOSED_SHELL('',(#338,#339,#340,#341,#342,#343,#344,#345,#346,#347,
#348,#349,#350,#351,#352,#353,#354,#355));
#357=STYLED_ITEM('',(#358),#365);
#358=PRESENTATION_STYLE_ASSIGNMENT((#359));
#359=SURFACE_STYLE_USAGE(.BOTH.,#360);
#360=SURFACE_SIDE_STYLE('',(#361));
#361=SURFACE_STYLE_FILL_AREA(#362);
#362=FILL_AREA_STYLE('',(#363));
#363=FILL_AREA_STYLE_COLOUR('',#364);
#364=COLOUR_RGB('',0.615686274509804,0.811764705882353,0.929411764705882);
#365=MANIFOLD_SOLID_BREP('Part 1',#356);
#366=SHAPE_DEFINITION_REPRESENTATION(#578,#367);
#367=SHAPE_REPRESENTATION('Part 1',(#368),#573);
#368=AXIS2_PLACEMENT_3D('',#473,#387,#388);
#369=AXIS2_PLACEMENT_3D('',#474,#389,#390);
#370=AXIS2_PLACEMENT_3D('',#483,#395,#396);
#371=AXIS2_PLACEMENT_3D('',#489,#400,#401);
#372=AXIS2_PLACEMENT_3D('',#495,#405,#406);
#373=AXIS2_PLACEMENT_3D('',#501,#410,#411);
#374=AXIS2_PLACEMENT_3D('',#507,#415,#416);
#375=AXIS2_PLACEMENT_3D('',#513,#420,#421);
#376=AXIS2_PLACEMENT_3D('',#519,#425,#426);
#377=AXIS2_PLACEMENT_3D('',#525,#430,#431);
#378=AXIS2_PLACEMENT_3D('',#534,#436,#437);
#379=AXIS2_PLACEMENT_3D('',#540,#441,#442);
#380=AXIS2_PLACEMENT_3D('',#551,#449,#450);
#381=AXIS2_PLACEMENT_3D('',#559,#456,#457);
#382=AXIS2_PLACEMENT_3D('',#560,#458,#459);
#383=AXIS2_PLACEMENT_3D('',#561,#460,#461);
#384=AXIS2_PLACEMENT_3D('',#565,#464,#465);
#385=AXIS2_PLACEMENT_3D('',#569,#468,#469);
#386=AXIS2_PLACEMENT_3D('',#571,#471,#472);
#387=DIRECTION('',(0.,0.,1.));
#388=DIRECTION('',(1.,0.,0.));
#389=DIRECTION('',(0.,0.999975220258027,0.00703980609894211));
#390=DIRECTION('',(0.,-0.00703980609894211,0.999975220258027));
#391=DIRECTION('',(0.,0.00703980609894211,-0.999975220258027));
#392=DIRECTION('',(-1.,0.,0.));
#393=DIRECTION('',(0.,0.00703980609894211,-0.999975220258027));
#394=DIRECTION('',(-1.,0.,0.));
#395=DIRECTION('',(0.,0.,1.));
#396=DIRECTION('',(1.,0.,0.));
#397=DIRECTION('',(0.,1.,0.));
#398=DIRECTION('',(0.,1.,0.));
#399=DIRECTION('',(-1.,0.,0.));
#400=DIRECTION('',(0.,1.,-1.70279605003858E-16));
#401=DIRECTION('',(0.,1.70279605003858E-16,1.));
#402=DIRECTION('',(0.,-1.70279605003858E-16,-1.));
#403=DIRECTION('',(0.,-1.70279605003858E-16,-1.));
#404=DIRECTION('',(-1.,0.,0.));
#405=DIRECTION('',(0.,0.,1.));
#406=DIRECTION('',(1.,0.,0.));
#407=DIRECTION('',(-1.,0.,0.));
#408=DIRECTION('',(0.,1.,0.));
#409=DIRECTION('',(0.,1.,0.));
#410=DIRECTION('',(0.,1.,0.));
#411=DIRECTION('',(0.,0.,1.));
#412=DIRECTION('',(0.,0.,-1.));
#413=DIRECTION('',(0.,0.,-1.));
#414=DIRECTION('',(-1.,0.,0.));
#415=DIRECTION('',(0.,0.,1.));
#416=DIRECTION('',(1.,0.,0.));
#417=DIRECTION('',(-1.,0.,0.));
#418=DIRECTION('',(0.,1.,0.));
#419=DIRECTION('',(0.,1.,0.));
#420=DIRECTION('',(0.,1.,0.));
#421=DIRECTION('',(0.,0.,1.));
#422=DIRECTION('',(-1.,0.,0.));
#423=DIRECTION('',(0.,0.,-1.));
#424=DIRECTION('',(0.,0.,-1.));
#425=DIRECTION('',(0.,0.,-1.));
#426=DIRECTION('',(-1.,0.,0.));
#427=DIRECTION('',(0.,-1.,0.));
#428=DIRECTION('',(0.,-1.,0.));
#429=DIRECTION('',(-1.,0.,0.));
#430=DIRECTION('',(0.,0.,-1.));
#431=DIRECTION('',(-1.,0.,0.));
#432=DIRECTION('',(-1.,0.,0.));
#433=DIRECTION('',(0.,-1.,0.));
#434=DIRECTION('',(-1.,0.,0.));
#435=DIRECTION('',(0.,-1.,0.));
#436=DIRECTION('',(0.,-1.,8.16340459283203E-17));
#437=DIRECTION('',(0.,-8.16340459283203E-17,-1.));
#438=DIRECTION('',(0.,8.16340459283203E-17,1.));
#439=DIRECTION('',(-1.,0.,0.));
#440=DIRECTION('',(0.,8.16340459283203E-17,1.));
#441=DIRECTION('',(0.,1.67885293003263E-16,-1.));
#442=DIRECTION('',(0.,1.,1.67885293003263E-16));
#443=DIRECTION('',(0.,-1.,-1.67885293003263E-16));
#444=DIRECTION('',(0.,-1.,1.6326809185664E-16));
#445=DIRECTION('',(-1.,0.,0.));
#446=DIRECTION('',(0.,-1.,0.));
#447=DIRECTION('',(-1.,0.,0.));
#448=DIRECTION('',(0.,-1.,-1.67885293003263E-16));
#449=DIRECTION('',(0.,-1.,0.));
#450=DIRECTION('',(0.,0.,-1.));
#451=DIRECTION('',(0.,0.,1.));
#452=DIRECTION('',(0.,0.,1.));
#453=DIRECTION('',(-1.,0.,0.));
#454=DIRECTION('',(0.,3.26536183713282E-16,1.));
#455=DIRECTION('',(0.,0.,1.));
#456=DIRECTION('',(1.,0.,0.));
#457=DIRECTION('',(0.,1.,0.));
#458=DIRECTION('',(1.,0.,0.));
#459=DIRECTION('',(0.,1.,0.));
#460=DIRECTION('',(1.,0.,0.));
#461=DIRECTION('',(0.,1.,0.));
#462=DIRECTION('',(0.,-1.,0.));
#463=DIRECTION('',(0.,0.,-1.));
#464=DIRECTION('',(0.,1.,0.));
#465=DIRECTION('',(0.,0.,1.));
#466=DIRECTION('',(-1.,0.,0.));
#467=DIRECTION('',(0.,0.,-1.));
#468=DIRECTION('',(0.,0.,-1.));
#469=DIRECTION('',(-1.,0.,0.));
#470=DIRECTION('',(0.,-1.,0.));
#471=DIRECTION('',(1.,0.,0.));
#472=DIRECTION('',(0.,1.,0.));
#473=CARTESIAN_POINT('',(0.,0.,0.));
#474=CARTESIAN_POINT('',(0.1,-0.0803123199659587,0.08325));
#475=CARTESIAN_POINT('',(0.095,-0.0803123199659587,0.08325));
#476=CARTESIAN_POINT('',(0.095,-0.0803246399319174,0.085));
#477=CARTESIAN_POINT('',(0.095,-0.0803,0.0815));
#478=CARTESIAN_POINT('',(0.1,-0.0803246399319174,0.085));
#479=CARTESIAN_POINT('',(-0.1,-0.0803246399319174,0.085));
#480=CARTESIAN_POINT('',(-0.1,-0.0803123199659587,0.08325));
#481=CARTESIAN_POINT('',(-0.1,-0.0803,0.0815));
#482=CARTESIAN_POINT('',(0.1,-0.0803,0.0815));
#483=CARTESIAN_POINT('',(0.1,0.000600000000000017,0.0815));
#484=CARTESIAN_POINT('',(0.095,0.000600000000000017,0.0815));
#485=CARTESIAN_POINT('',(0.095,0.0815,0.0815));
#486=CARTESIAN_POINT('',(-0.1,0.000600000000000017,0.0815));
#487=CARTESIAN_POINT('',(-0.1,0.0815,0.0815));
#488=CARTESIAN_POINT('',(0.1,0.0815,0.0815));
#489=CARTESIAN_POINT('',(0.1,0.0815,0.));
#490=CARTESIAN_POINT('',(0.095,0.0815,0.));
#491=CARTESIAN_POINT('',(0.095,0.0815,-0.0815));
#492=CARTESIAN_POINT('',(-0.1,0.0815,0.));
#493=CARTESIAN_POINT('',(-0.1,0.0815,-0.0815));
#494=CARTESIAN_POINT('',(0.1,0.0815,-0.0815));
#495=CARTESIAN_POINT('',(0.1,0.04075,-0.0815));
#496=CARTESIAN_POINT('',(0.1,-0.0803,-0.0815));
#497=CARTESIAN_POINT('',(0.095,-0.0803,-0.0815));
#498=CARTESIAN_POINT('',(-0.1,-0.0803,-0.0815));
#499=CARTESIAN_POINT('',(0.095,0.04075,-0.0815));
#500=CARTESIAN_POINT('',(-0.1,0.04075,-0.0815));
#501=CARTESIAN_POINT('',(0.1,-0.0803,-0.082375));
#502=CARTESIAN_POINT('',(0.095,-0.0803,-0.082375));
#503=CARTESIAN_POINT('',(0.095,-0.0803,-0.08325));
#504=CARTESIAN_POINT('',(-0.1,-0.0803,-0.082375));
#505=CARTESIAN_POINT('',(-0.1,-0.0803,-0.08325));
#506=CARTESIAN_POINT('',(0.1,-0.0803,-0.08325));
#507=CARTESIAN_POINT('',(0.1,-0.0809,-0.08325));
#508=CARTESIAN_POINT('',(0.1,-0.0815,-0.08325));
#509=CARTESIAN_POINT('',(0.095,-0.0815,-0.08325));
#510=CARTESIAN_POINT('',(-0.1,-0.0815,-0.08325));
#511=CARTESIAN_POINT('',(0.095,-0.0809,-0.08325));
#512=CARTESIAN_POINT('',(-0.1,-0.0809,-0.08325));
#513=CARTESIAN_POINT('',(0.1,-0.0815,-0.082375));
#514=CARTESIAN_POINT('',(0.1,-0.0815,-0.0815));
#515=CARTESIAN_POINT('',(0.095,-0.0815,-0.0815));
#516=CARTESIAN_POINT('',(-0.1,-0.0815,-0.0815));
#517=CARTESIAN_POINT('',(0.095,-0.0815,-0.082375));
#518=CARTESIAN_POINT('',(-0.1,-0.0815,-0.082375));
#519=CARTESIAN_POINT('',(0.1,-0.08325,-0.0815));
#520=CARTESIAN_POINT('',(0.095,-0.08325,-0.0815));
#521=CARTESIAN_POINT('',(0.095,-0.085,-0.0815));
#522=CARTESIAN_POINT('',(-0.1,-0.08325,-0.0815));
#523=CARTESIAN_POINT('',(-0.1,-0.085,-0.0815));
#524=CARTESIAN_POINT('',(0.1,-0.085,-0.0815));
#525=CARTESIAN_POINT('',(0.1,-0.0809,-0.085));
#526=CARTESIAN_POINT('',(0.1,-0.085,-0.085));
#527=CARTESIAN_POINT('',(0.1,-0.085,-0.085));
#528=CARTESIAN_POINT('',(-0.1,-0.085,-0.085));
#529=CARTESIAN_POINT('',(-0.1,-0.0809,-0.085));
#530=CARTESIAN_POINT('',(-0.1,0.085,-0.085));
#531=CARTESIAN_POINT('',(0.1,0.085,-0.085));
#532=CARTESIAN_POINT('',(0.1,0.085,-0.085));
#533=CARTESIAN_POINT('',(0.1,-0.0809,-0.085));
#534=CARTESIAN_POINT('',(0.1,0.085,-6.93889390390723E-18));
#535=CARTESIAN_POINT('',(-0.1,0.085,-6.93889390390723E-18));
#536=CARTESIAN_POINT('',(-0.1,0.085,0.085));
#537=CARTESIAN_POINT('',(0.1,0.085,0.085));
#538=CARTESIAN_POINT('',(0.1,0.085,0.085));
#539=CARTESIAN_POINT('',(0.1,0.085,-6.93889390390723E-18));
#540=CARTESIAN_POINT('',(0.1,0.00233768003404129,0.085));
#541=CARTESIAN_POINT('',(-0.1,0.00233768003404129,0.085));
#542=CARTESIAN_POINT('',(0.095,2.77555756156289E-17,0.085));
#543=CARTESIAN_POINT('',(0.095,-0.0815,0.085));
#544=CARTESIAN_POINT('',(0.1,-0.0815,0.085));
#545=CARTESIAN_POINT('',(-0.1,-0.0815,0.085));
#546=CARTESIAN_POINT('',(-0.1,-0.08325,0.085));
#547=CARTESIAN_POINT('',(-0.1,-0.085,0.085));
#548=CARTESIAN_POINT('',(0.1,-0.085,0.085));
#549=CARTESIAN_POINT('',(0.1,-0.085,0.085));
#550=CARTESIAN_POINT('',(0.1,0.00233768003404129,0.085));
#551=CARTESIAN_POINT('',(0.1,-0.085,-0.08325));
#552=CARTESIAN_POINT('',(0.1,-0.085,-0.08325));
#553=CARTESIAN_POINT('',(-0.1,-0.085,0.0815));
#554=CARTESIAN_POINT('',(-0.1,-0.085,0.078));
#555=CARTESIAN_POINT('',(0.1,-0.085,0.078));
#556=CARTESIAN_POINT('',(0.095,-0.085,0.078));
#557=CARTESIAN_POINT('',(0.095,-0.085,2.77555756156289E-17));
#558=CARTESIAN_POINT('',(-0.1,-0.085,-0.08325));
#559=CARTESIAN_POINT('',(0.1,1.38777878078145E-17,1.38777878078145E-17));
#560=CARTESIAN_POINT('',(-0.1,1.38777878078145E-17,1.38777878078145E-17));
#561=CARTESIAN_POINT('',(0.095,0.,0.));
#562=CARTESIAN_POINT('',(0.095,-0.08325,0.078));
#563=CARTESIAN_POINT('',(0.095,-0.0815,0.078));
#564=CARTESIAN_POINT('',(0.095,-0.0815,0.07975));
#565=CARTESIAN_POINT('',(0.1,-0.0815,0.07975));
#566=CARTESIAN_POINT('',(0.1,-0.0815,0.078));
#567=CARTESIAN_POINT('',(-0.1,-0.0815,0.078));
#568=CARTESIAN_POINT('',(-0.1,-0.0815,0.07975));
#569=CARTESIAN_POINT('',(0.1,-0.08325,0.078));
#570=CARTESIAN_POINT('',(-0.1,-0.08325,0.078));
#571=CARTESIAN_POINT('',(-0.1,1.38777878078145E-17,1.38777878078145E-17));
#572=MECHANICAL_DESIGN_GEOMETRIC_PRESENTATION_REPRESENTATION('',(#357),
#573);
#573=(
GEOMETRIC_REPRESENTATION_CONTEXT(3)
GLOBAL_UNCERTAINTY_ASSIGNED_CONTEXT((#574))
GLOBAL_UNIT_ASSIGNED_CONTEXT((#577,#576,#575))
REPRESENTATION_CONTEXT('Part 1','TOP_LEVEL_ASSEMBLY_PART')
);
#574=UNCERTAINTY_MEASURE_WITH_UNIT(LENGTH_MEASURE(1.E-8),#577,
'DISTANCE_ACCURACY_VALUE','Maximum Tolerance applied to model');
#575=(
NAMED_UNIT(*)
SI_UNIT($,.STERADIAN.)
SOLID_ANGLE_UNIT()
);
#576=(
NAMED_UNIT(*)
PLANE_ANGLE_UNIT()
SI_UNIT($,.RADIAN.)
);
#577=(
LENGTH_UNIT()
NAMED_UNIT(*)
SI_UNIT($,.METRE.)
);
#578=PRODUCT_DEFINITION_SHAPE('','',#579);
#579=PRODUCT_DEFINITION('','',#581,#580);
#580=PRODUCT_DEFINITION_CONTEXT('',#587,'design');
#581=PRODUCT_DEFINITION_FORMATION_WITH_SPECIFIED_SOURCE('','',#583,
 .NOT_KNOWN.);
#582=PRODUCT_RELATED_PRODUCT_CATEGORY('','',(#583));
#583=PRODUCT('Part 1','Part 1','Part 1',(#585));
#584=PRODUCT_CATEGORY('','');
#585=PRODUCT_CONTEXT('',#587,'mechanical');
#586=APPLICATION_PROTOCOL_DEFINITION('international standard',
'ap242_managed_model_based_3d_engineering',2020,#587);
#587=APPLICATION_CONTEXT('managed model based 3d engineering');
ENDSEC;
END-ISO-10303-21;
